# xmcd
#
# Track frame offsets:
#	150
#	20925
#	38550
#	57599
#	77473
#	95247
#	120304
#	141828
#	161627
#	183904
#	196821
#	217596
#	235220
#	254270
#	274144
#	291918
#	316967
#	338492
#
# Disc length: 4775 seconds
#
# Revision: 0
# Processed by: cddbd v1.5.2PL0 Copyright (c) Steve Scherf et al.
# Submitted via: EasyCDDAExtractor 15.1.0.1
#
DISCID=fc12a512
DTITLE=Emerson E Otaviano (Novo Israel) - Acima De Tudo
DYEAR=2008
DGENRE=Gospel
TTITLE0=Deus Te Guarde
TTITLE1=Quero Ver Voce No Ceu
TTITLE2=Deus Eh Fiel
TTITLE3=Hino Da Vitoria
TTITLE4=Nao Para Nao
TTITLE5=Acima De Tudo
TTITLE6=Filho De Deus
TTITLE7=Lindo Coral
TTITLE8=Nao Da Pra Viver Sem Deus
TTITLE9=Estrela Do Oriente
TTITLE10=Deus Te Guarde (Pb)
TTITLE11=Quero Ver Voce No Ceu (Pb)
TTITLE12=Deus Eh Fiel (Pb)
TTITLE13=Hino Da Vitoria (Pb)
TTITLE14=Nao Para Nao (Pb)
TTITLE15=Acima De Tudo (Pb)
TTITLE16=Filho De Deus (Pb)
TTITLE17=Lindo Coral (Pb)
EXTD=
EXTT0=
EXTT1=
EXTT2=
EXTT3=
EXTT4=
EXTT5=
EXTT6=
EXTT7=
EXTT8=
EXTT9=
EXTT10=
EXTT11=
EXTT12=
EXTT13=
EXTT14=
EXTT15=
EXTT16=
EXTT17=
PLAYORDER=
